<?xml version="1.0" encoding="utf-8"?>
<!-- Generator: Adobe Illustrator 18.1.1, SVG Export Plug-In . SVG Version: 6.00 Build 0)  -->
<svg version="1.1" id="Layer_1" xmlns="http://www.w3.org/2000/svg" xmlns:xlink="http://www.w3.org/1999/xlink" x="0px" y="0px"
	 viewBox="0 0 190 45" enable-background="new 0 0 190 45" xml:space="preserve">
<g>
	<rect y="0.2" fill="#233467" width="190" height="44.7"/>
	<path fill="#FFFFFF" d="M26.4,18c-0.8-0.8-1.8-1.2-2.9-1.3c-0.6-0.1-1.3,0.2-1.7,0.6c-0.3,0.3-0.4,0.7-0.4,1.1c0,0.4,0.1,0.7,0.4,1
		c0.7,0.5,1.4,0.8,2.2,1l1.3,0.5c0.9,0.3,1.7,0.7,2.4,1.3c0.9,0.9,1.3,2,1.3,3.2c0.1,1.6-0.5,3.2-1.5,4.4c-1.5,1.6-3.8,1.8-4.9,1.8
		c-1.2,0-2.4-0.2-3.5-0.7c-0.9-0.5-1.8-1.2-2.6-1.9l2.1-2.9c0.5,0.5,1,0.9,1.6,1.3c0.7,0.4,1.4,0.6,2.2,0.6c0.7,0,1.3-0.2,1.8-0.6
		c0.4-0.4,0.6-0.9,0.6-1.4c0-0.5-0.2-1-0.6-1.3c-0.6-0.4-1.3-0.7-2-1l-1.5-0.5c-0.9-0.3-1.7-0.8-2.4-1.4c-0.7-0.8-1.1-1.9-1-3
		c-0.1-1.5,0.5-2.9,1.5-3.9c1.2-1.1,2.7-1.7,4.4-1.6c1.9,0,3.7,0.6,5.2,1.7L26.4,18z"/>
	<path fill="#FFFFFF" d="M38,17.2v14.1h-4V17.2h-3.8v-3.4h11.6v3.4H38z"/>
	<path fill="#FFFFFF" d="M58.9,15.9c3.6,3.6,3.6,9.5,0,13.1c0,0,0,0,0,0c-1.8,1.7-4.3,2.7-6.8,2.6c-2.5,0.1-5-0.9-6.8-2.6
		c-1.8-1.7-2.8-4.1-2.7-6.5c0-2.5,1-4.8,2.7-6.6c1.8-1.7,4.3-2.7,6.8-2.6C54.6,13.3,57,14.2,58.9,15.9z M48.2,18.6
		c-1,1-1.6,2.5-1.5,4c-0.1,1.5,0.5,2.9,1.6,3.9c1,1,2.4,1.5,3.7,1.5c1.4,0.1,2.8-0.5,3.9-1.5c1-1,1.6-2.4,1.5-3.9
		c0-1.5-0.5-2.9-1.5-3.9c-1-1-2.4-1.5-3.9-1.5C50.6,17.1,49.3,17.6,48.2,18.6z"/>
	<path fill="#FFFFFF" d="M70.7,13.8c1.6-0.1,3.2,0.5,4.5,1.5c1,1,1.6,2.4,1.5,3.9c0.1,1.3-0.4,2.6-1.4,3.6c-0.7,0.7-1.5,1.1-2.4,1.4
		l5.4,7.2h-4.9l-4.7-6.9v6.9h-4V13.8H70.7z M68.6,21.7h0.9c0.9,0.1,1.7-0.2,2.4-0.7c0.4-0.5,0.7-1.1,0.7-1.7c0-0.7-0.3-1.4-0.8-1.8
		c-0.7-0.4-1.4-0.6-2.2-0.6h-0.9L68.6,21.7z"/>
	<path fill="#FFFFFF" d="M84.3,23.1L78,13.8h4.8l3.5,5.4l3.5-5.4h4.8l-6.3,9.3v8.1h-4V23.1z"/>
	<path fill="#FFFFFF" d="M104.6,17.2c-0.3-0.5-0.6-0.9-1-1.3c-0.6-0.4-1.3-0.6-2-0.6c-1.7,0-2.9,1.1-2.9,2.7c0,0.6,0.2,1.1,0.7,1.5
		c0.5,0.5,1.2,0.9,1.8,1.1l1.7,0.7c1,0.4,1.9,0.9,2.7,1.6c0.8,0.8,1.3,2,1.3,3.2c0,3.2-2.4,5.4-5.5,5.4c-1.4,0.1-2.8-0.4-3.8-1.4
		c-0.8-0.9-1.4-1.9-1.6-3.1l1.9-0.5c0.1,0.8,0.5,1.6,1,2.2c1.4,1.4,3.7,1.3,5.1-0.2c0.6-0.6,0.9-1.5,1-2.3c0-0.8-0.3-1.5-0.9-2
		c-0.6-0.5-1.3-0.9-2.1-1.2l-1.6-0.7c-0.9-0.3-1.6-0.8-2.3-1.5c-0.8-0.7-1.3-1.8-1.2-2.9c0-2.7,2.1-4.5,4.9-4.5c1,0,2,0.3,2.8,0.8
		c0.7,0.5,1.3,1.2,1.7,1.9L104.6,17.2z"/>
	<path fill="#FFFFFF" d="M123.8,17.6c-0.7-0.7-1.4-1.2-2.3-1.6c-0.9-0.4-2-0.7-3-0.7c-3.9,0-7,3.2-7,7.1c0,0.1,0,0.1,0,0.2
		c-0.1,3.9,3,7.1,6.9,7.1c0.1,0,0.1,0,0.2,0c1.1,0,2.2-0.3,3.3-0.8c0.7-0.4,1.4-0.9,2-1.5v2.4c-1.5,1.1-3.4,1.7-5.3,1.7
		c-4.9,0.1-8.9-3.7-9-8.6c0-0.1,0-0.2,0-0.4c-0.1-4.9,3.8-9,8.7-9.1c0.2,0,0.3,0,0.5,0c1.9,0,3.7,0.6,5.2,1.7L123.8,17.6z"/>
	<path fill="#FFFFFF" d="M126.4,22.5c0-5,4.1-9.1,9.1-9.1c5,0,9.1,4.1,9.1,9.1c0,5-4.1,9.1-9.1,9.1
		C130.5,31.6,126.4,27.5,126.4,22.5z M128.4,22.5c0.1,3.9,3.3,7.1,7.2,7c3.9-0.1,7.1-3.3,7-7.2c-0.1-3.9-3.2-7-7.1-7
		C131.5,15.3,128.4,18.5,128.4,22.5C128.4,22.5,128.4,22.5,128.4,22.5L128.4,22.5z"/>
	<path fill="#FFFFFF" d="M150.1,24.5c0,1.5,0,3.1,1.4,4.2c1.7,1.3,4.1,1.3,5.8,0c1.4-1.2,1.4-2.8,1.4-4.2V13.8h1.9V25
		c0.1,1.5-0.3,2.9-1.1,4.2c-2.4,2.8-6.6,3.2-9.5,0.8c-0.3-0.2-0.5-0.5-0.8-0.8c-0.8-1.2-1.2-2.7-1.1-4.2V13.8h1.9L150.1,24.5z"/>
	<path fill="#FFFFFF" d="M169.4,15.6v15.6h-1.9V15.6h-4.2v-1.8h10.4v1.8L169.4,15.6z"/>
	<g>
		<path fill="#FFFFFF" d="M183.5,39.7H6.5V5.3h176.9V39.7z M8.5,37.7h172.9V7.3H8.5V37.7z"/>
	</g>
</g>
</svg>
