<?xml version="1.0" standalone="no"?>
<!DOCTYPE svg PUBLIC "-//W3C//DTD SVG 1.1//EN" "http://www.w3.org/Graphics/SVG/1.1/DTD/svg11.dtd" >
<svg xmlns="http://www.w3.org/2000/svg">
<metadata>Generated by IcoMoon</metadata>
<defs>
<font id="icomoon" horiz-adv-x="1024">
<font-face units-per-em="1024" ascent="960" descent="-64" />
<missing-glyph horiz-adv-x="1024" />
<glyph unicode="&#x20;" horiz-adv-x="512" d="" />
<glyph unicode="&#xe900;" glyph-name="available" d="M456.533 277.333c-12.8 0-21.333 4.267-29.867 12.8l-110.933 115.2c-17.067 17.067-17.067 42.667 0 59.733s42.667 17.067 59.733 0l76.8-81.067 213.333 260.267c12.8 17.067 42.667 21.333 59.733 4.267s21.333-42.667 4.267-59.733l-243.2-298.667c-4.267-8.533-12.8-12.8-29.867-12.8 4.267 0 4.267 0 0 0zM507.733-55.467c-132.267 0-260.267 51.2-354.133 145.067-196.267 200.533-196.267 520.533 0 712.533 93.867 93.867 221.867 145.067 354.133 145.067s260.267-51.2 354.133-145.067c196.267-196.267 196.267-516.267 0-712.533-93.867-89.6-217.6-145.067-354.133-145.067zM507.733 866.133c-110.933 0-217.6-42.667-294.4-123.733-162.133-162.133-162.133-426.667 0-588.8 76.8-76.8 183.467-123.733 294.4-123.733s217.6 42.667 294.4 123.733c162.133 162.133 162.133 426.667 0 588.8-76.8 81.067-179.2 123.733-294.4 123.733z" />
<glyph unicode="&#xe901;" glyph-name="bloomberg" horiz-adv-x="4982" d="M69.189 918.486h207.568c117.622 0 159.135-13.838 207.568-76.108 34.595-34.595 41.514-76.108 41.514-117.622 0-55.351-20.757-96.865-83.027-124.541 117.622-41.514 117.622-138.378 117.622-166.054 0-55.351-20.757-117.622-62.27-145.297-62.27-55.351-96.865-62.27-207.568-62.27h-221.405v691.892zM249.081 655.568h55.351c20.757 0 62.27 0 62.27 55.351s-41.514 55.351-62.27 55.351h-55.351v-110.703zM249.081 385.73h76.108c20.757 0 76.108 0 76.108 62.27s-55.351 62.27-76.108 62.27h-76.108v-124.541zM601.946 918.486h159.135v-684.973h-159.135v684.973zM1079.351 759.351c186.811 0 269.838-145.297 269.838-269.838s-83.027-283.676-269.838-283.676-283.676 159.135-283.676 283.676c0 124.541 96.865 269.838 283.676 269.838zM1079.351 358.054c62.27 0 117.622 55.351 117.622 138.378 0 76.108-55.351 124.541-117.622 124.541-76.108 0-124.541-55.351-124.541-124.541 0-89.946 48.432-138.378 124.541-138.378zM1660.541 759.351c186.811 0 283.676-145.297 283.676-269.838s-96.865-283.676-283.676-283.676-276.757 159.135-276.757 283.676c0 124.541 89.946 269.838 276.757 269.838zM1660.541 358.054c62.27 0 124.541 55.351 124.541 138.378 0 69.189-62.27 117.622-124.541 117.622s-124.541-55.351-124.541-124.541c0-83.027 62.27-131.459 124.541-131.459zM1971.892 738.595h145.297v-55.351c13.838 20.757 55.351 76.108 145.297 76.108 41.514 0 103.784-20.757 145.297-96.865 34.595 55.351 83.027 96.865 166.054 96.865 34.595 0 96.865-13.838 138.378-55.351 41.514-48.432 55.351-76.108 55.351-193.73v-283.676h-159.135v276.757c0 41.514 0 117.622-76.108 117.622-96.865 0-96.865-76.108-96.865-103.784v-283.676h-145.297v276.757c0 20.757 0 103.784-83.027 103.784s-83.027-83.027-83.027-117.622v-269.838h-159.135v512zM2829.838 918.486h159.135v-221.405c55.351 62.27 124.541 62.27 145.297 62.27 117.622 0 262.919-76.108 262.919-269.838 0-186.811-138.378-283.676-262.919-283.676-76.108 0-124.541 41.514-145.297 76.108h-13.838v-55.351h-145.297v691.892zM3113.514 358.054c76.108 0 124.541 62.27 124.541 138.378 0 55.351-55.351 117.622-124.541 117.622-83.027 0-124.541-62.27-124.541-124.541 0-69.189 41.514-131.459 124.541-131.459zM3964.541 385.73c-34.595-55.351-62.27-96.865-103.784-124.541-55.351-34.595-96.865-55.351-159.135-55.351-145.297 0-269.838 124.541-269.838 283.676 0 138.378 117.622 269.838 269.838 269.838 159.135 0 269.838-124.541 269.838-283.676v-41.514h-387.459c13.838-62.27 62.27-96.865 117.622-96.865s76.108 20.757 96.865 41.514h166.054zM3826.162 544.865c-13.838 34.595-41.514 96.865-124.541 96.865-76.108 0-103.784-62.27-117.622-96.865h242.162zM4040.649 738.595h145.297v-55.351c20.757 13.838 83.027 62.27 145.297 55.351v-145.297c-62.27 0-138.378 0-138.378-83.027v-283.676h-159.135v512zM4912.432 295.784c0-76.108-13.838-179.892-34.595-221.405-41.514-62.27-138.378-124.541-262.919-103.784-179.892 13.838-228.324 96.865-242.162 179.892h166.054c20.757-55.351 76.108-55.351 83.027-55.351 83.027 0 124.541 13.838 124.541 179.892v6.919c-20.757-20.757-62.27-76.108-145.297-76.108-138.378 0-262.919 117.622-262.919 269.838 0 179.892 124.541 283.676 262.919 283.676 62.27 0 117.622-20.757 145.297-62.27v41.514h166.054v-442.811zM4628.757 358.054c76.108 0 124.541 55.351 124.541 124.541 0 83.027-55.351 138.378-124.541 138.378-62.27 0-124.541-55.351-124.541-124.541 0-89.946 62.27-138.378 124.541-138.378z" />
<glyph unicode="&#xe902;" glyph-name="facebook" horiz-adv-x="475" d="M474.899 629.267h-161.126v106.004c0 40.282 25.441 48.762 44.522 48.762h114.484v175.967h-156.886c-175.967 0-214.128-131.445-214.128-214.128v-116.605h-101.764v-180.207h101.764v-510.94h212.008v508.82h144.166l16.961 182.327z" />
<glyph unicode="&#xe903;" glyph-name="genres" d="M514.56 947.2c-276.48 0-501.76-225.28-501.76-501.76s225.28-499.2 499.2-499.2c276.48 0 499.2 225.28 499.2 499.2 2.56 276.48-220.16 501.76-496.64 501.76zM555.52 263.68c-84.48 0-156.16 69.12-156.16 156.16s69.12 156.16 156.16 156.16c84.48 0 156.16-69.12 156.16-156.16s-69.12-156.16-156.16-156.16zM737.28 422.4c-2.56 97.28-81.92 176.64-181.76 176.64s-181.76-81.92-181.76-181.76c0-92.16 69.12-166.4 156.16-179.2-12.8-2.56-23.040-2.56-35.84-2.56-138.24 0-250.88 112.64-250.88 250.88s112.64 250.88 250.88 250.88 250.88-112.64 250.88-250.88c0-20.48-2.56-43.52-7.68-64zM494.080 762.88c-151.040 0-276.48-122.88-276.48-276.48 0-128 87.040-235.52 204.8-266.24-176.64 12.8-317.44 158.72-317.44 340.48 0 186.88 153.6 340.48 340.48 340.48s340.48-153.6 340.48-340.48c0-38.4-7.68-76.8-17.92-110.080 2.56 12.8 2.56 25.6 2.56 35.84 0 153.6-122.88 276.48-276.48 276.48zM514.56-28.16c-261.12 0-473.6 212.48-473.6 473.6 0 81.92 20.48 158.72 58.88 227.84-12.8-35.84-17.92-74.24-17.92-112.64 0-202.24 163.84-366.080 366.080-366.080s366.080 163.84 366.080 366.080c0 179.2-130.56 330.24-299.52 360.96 0 0 2.56 0 2.56 0 261.12 0 473.6-212.48 473.6-473.6-2.56-263.68-215.040-476.16-476.16-476.16z" />
<glyph unicode="&#xe904;" glyph-name="geography" horiz-adv-x="1256" d="M1169.383 825.152c-6.321 10.535-18.963 31.605-168.56-29.498l8.428-18.963c126.42 50.568 143.276 37.926 143.276 37.926s6.321-18.963-109.564-107.457c-82.173 120.099-221.235 200.165-377.152 200.165-252.84 0-459.325-206.486-459.325-459.325 0-71.638 16.856-139.062 44.247-198.058-96.922-40.033-141.169-46.354-147.49-40.033 0 0-2.107 21.070 101.136 103.243l-12.642 16.856c-111.671-86.387-115.885-113.778-107.457-128.527 4.214-8.428 14.749-10.535 27.391-10.535 31.605 0 86.387 18.963 147.49 42.14 80.066-145.383 231.77-242.305 406.65-242.305 252.84 0 459.325 206.486 459.325 459.325 0 88.494-25.284 170.667-69.531 242.305 132.741 101.136 120.099 122.206 113.778 132.741zM855.44 551.243c18.963 12.642 37.926 25.284 54.782 35.819 10.535-42.14 16.856-84.28 18.963-128.527h-143.276v-21.070h143.276c-2.107-80.066-21.070-155.918-52.675-223.342-42.14 6.321-82.173 8.428-124.313 10.535 0 4.214 2.107 6.321 2.107 10.535l-21.070 4.214c0-4.214-2.107-8.428-4.214-14.749-44.247 2.107-86.387 2.107-130.634 0-2.107 12.642-6.321 27.391-8.428 40.033l-21.070-4.214c2.107-12.642 6.321-25.284 8.428-37.926-42.14-2.107-82.173-6.321-124.313-10.535-14.749 27.391-25.284 58.996-33.712 88.494 29.498 14.749 56.889 27.391 77.959 40.033l-10.535 18.963c-25.284-12.642-50.568-25.284-71.638-37.926-8.428 35.819-12.642 73.745-14.749 111.671h48.461v21.070h-48.461c2.107 73.745 16.856 143.276 46.354 206.486 42.14-6.321 84.28-10.535 126.42-12.642 0 0 0 0 0 0l21.070-4.214c0 2.107 0 2.107 0 4.214 23.177 0 46.354-2.107 69.531-2.107s46.354 0 69.531 2.107c6.321-27.391 10.535-54.782 14.749-84.28l21.070 2.107c-4.214 27.391-8.428 54.782-12.642 82.173 42.14 2.107 84.28 6.321 126.42 12.642 8.428-18.963 14.749-37.926 21.070-56.889-18.963-12.642-40.033-25.284-61.103-40.033l12.642-12.642zM1101.959 437.465c-2.107-92.708-33.712-176.988-84.28-246.519-40.033 8.428-80.066 16.856-120.099 21.070 31.605 67.424 50.568 145.383 52.675 225.449h151.704zM644.741 20.28c-73.745 33.712-136.955 96.922-181.202 174.881 40.033 4.214 77.959 8.428 117.992 10.535 16.856-61.103 37.926-124.313 63.21-185.416zM604.708 205.695c40.033 2.107 80.066 2.107 120.099 0-14.749-58.996-35.819-117.992-61.103-179.095-23.177 61.103-44.247 120.099-58.996 179.095zM745.877 205.695c40.033-2.107 77.959-6.321 117.992-10.535-42.14-77.959-105.35-141.169-181.202-174.881 27.391 61.103 48.461 124.313 63.21 185.416zM227.556 458.535c2.107 86.387 29.498 166.453 73.745 231.77 42.14-8.428 82.173-16.856 124.313-23.177-27.391-63.21-44.247-134.848-44.247-208.593h-153.811zM684.774 875.72c80.066-35.819 145.383-105.35 187.523-191.737-40.033-4.214-82.173-8.428-122.206-10.535-14.749 67.424-35.819 136.955-65.317 202.272zM729.021 673.449c-42.14-2.107-86.387-2.107-128.527 0 14.749 65.317 35.819 130.634 65.317 195.951 27.391-65.317 48.461-130.634 63.21-195.951zM579.424 673.449c-40.033 2.107-82.173 6.321-122.206 10.535 42.14 86.387 109.564 153.811 189.63 191.737-29.498-65.317-52.675-134.848-67.424-202.272zM903.901 669.235c37.926 6.321 75.852 12.642 113.778 21.070-27.391-18.963-58.996-42.14-96.922-67.424-4.214 14.749-8.428 29.498-16.856 46.354zM1015.572 709.267c-40.033-8.428-80.066-16.856-120.099-21.070-40.033 84.28-101.136 151.704-174.881 193.844 120.099-14.749 225.449-80.066 294.979-172.774zM611.029 882.041c-73.745-42.14-134.848-109.564-174.881-193.844-40.033 6.321-80.066 12.642-120.099 21.070 69.531 92.708 172.774 158.025 294.979 172.774zM227.556 437.465h151.704c0-42.14 6.321-82.173 14.749-122.206-48.461-23.177-88.494-42.14-124.313-56.889-25.284 54.782-40.033 115.885-42.14 179.095zM402.436 296.296c8.428-29.498 18.963-56.889 31.605-82.173-40.033-6.321-80.066-12.642-120.099-21.070-10.535 14.749-23.177 31.605-31.605 48.461 37.926 14.749 80.066 35.819 120.099 54.782zM326.584 171.984c37.926 8.428 77.959 14.749 115.885 21.070 40.033-75.852 99.029-139.062 166.453-176.988-113.778 12.642-212.807 71.638-282.337 155.918zM720.593 13.959c69.531 40.033 126.42 101.136 166.453 176.988 37.926-6.321 77.959-12.642 115.885-21.070-67.424-82.173-168.56-141.169-282.337-155.918zM1101.959 458.535h-151.704c0 48.461-8.428 96.922-21.070 141.169 42.14 29.498 77.959 54.782 107.457 75.852 40.033-63.21 63.21-136.955 65.317-217.021zM764.84 523.852c-12.642-4.214-27.391-10.535-40.033-18.963l-10.535-6.321c-4.214-2.107-8.428-2.107-12.642-2.107s-10.535 2.107-16.856 8.428l-88.494 101.136c-2.107 2.107-4.214 2.107-10.535 0l-10.535-4.214 73.745-141.169-6.321-6.321c-14.749-10.535-31.605-23.177-48.461-33.712l-12.642-8.428c-8.428-6.321-16.856-6.321-25.284-2.107s-14.749 10.535-21.070 14.749c-6.321 6.321-12.642 10.535-18.963 14.749-2.107 0-6.321-2.107-10.535-4.214l40.033-40.033-6.321-10.535 8.428-14.749h12.642l16.856-54.782c4.214 2.107 8.428 4.214 8.428 6.321 0 8.428-2.107 14.749-2.107 23.177-2.107 8.428-2.107 14.749-2.107 23.177s6.321 16.856 14.749 21.070c23.177 10.535 48.461 23.177 65.317 31.605l8.428 4.214 84.28-134.848 12.642 8.428c2.107 2.107 4.214 6.321 2.107 8.428l-42.14 126.42c-4.214 12.642 0 21.070 10.535 27.391l10.535 6.321c12.642 8.428 25.284 16.856 35.819 25.284 14.749 14.749 27.391 29.498 25.284 33.712 0 0-2.107 2.107-8.428 2.107-12.642 2.107-27.391-2.107-35.819-4.214z" />
<glyph unicode="&#xe905;" glyph-name="minus" horiz-adv-x="1020" d="M681.22 491.39h-342.78c-26.034 0-43.39-17.356-43.39-43.39s17.356-43.39 43.39-43.39h342.78c26.034 0 43.39 17.356 43.39 43.39s-17.356 43.39-43.39 43.39zM872.136 812.475c-95.458 95.458-225.627 147.525-360.136 147.525-138.847 0-264.678-52.068-364.475-147.525-199.593-199.593-199.593-525.017 0-724.61 95.458-95.458 225.627-147.525 360.136-147.525s264.678 52.068 360.136 147.525c203.932 199.593 203.932 525.017 4.339 724.61zM811.39 148.61c-78.102-78.102-186.576-125.831-299.39-125.831s-221.288 43.39-299.39 125.831c-169.22 164.881-169.22 433.898 0 598.78 78.102 82.441 186.576 125.831 299.39 125.831s221.288-43.39 299.39-125.831c164.881-164.881 164.881-433.898 0-598.78z" />
<glyph unicode="&#xe906;" glyph-name="plus" horiz-adv-x="1020" d="M681.22 491.39h-125.831v130.169c0 26.034-17.356 43.39-43.39 43.39s-43.39-17.356-43.39-43.39v-125.831h-130.169c-26.034 0-43.39-17.356-43.39-43.39s17.356-43.39 43.39-43.39h125.831v-125.831c0-26.034 17.356-43.39 43.39-43.39s43.39 17.356 43.39 43.39v125.831h125.831c26.034 0 43.39 17.356 43.39 43.39s-13.017 39.051-39.051 39.051zM872.136 812.475c-95.458 95.458-225.627 147.525-360.136 147.525-138.847 0-264.678-52.068-364.475-147.525-199.593-199.593-199.593-525.017 0-724.61 95.458-95.458 225.627-147.525 360.136-147.525s264.678 52.068 360.136 147.525c203.932 199.593 203.932 525.017 4.339 724.61zM811.39 148.61c-78.102-78.102-186.576-125.831-299.39-125.831s-221.288 43.39-299.39 125.831c-169.22 164.881-169.22 433.898 0 598.78 78.102 82.441 186.576 125.831 299.39 125.831s221.288-43.39 299.39-125.831c164.881-164.881 164.881-433.898 0-598.78z" />
<glyph unicode="&#xe907;" glyph-name="huffpost" horiz-adv-x="8014" d="M1124.174 13.913h278.261l155.826 868.174h-289.391l-55.652-311.652h-244.87l55.652 311.652h-289.391l-144.696-868.174h278.261l55.652 322.783h256zM1714.087 882.087l-89.043-478.609c-11.13-33.391-11.13-77.913-11.13-111.304 0-256 222.609-300.522 356.174-300.522 278.261 0 400.696 89.043 445.217 345.043l100.174 545.391h-289.391l-77.913-456.348c-22.261-144.696-44.522-222.609-155.826-222.609-66.783 0-100.174 33.391-100.174 111.304 0 33.391 0 66.783 11.13 111.304l100.174 467.478-289.391-11.13zM4029.217 13.913h289.391l44.522 222.609h133.565c244.87 0 389.565 133.565 389.565 378.435 0 166.957-122.435 267.13-322.783 267.13h-367.304l-166.957-868.174zM4474.435 448h-77.913l33.391 200.348h77.913c66.783 0 100.174-33.391 100.174-89.043-11.13-66.783-55.652-111.304-133.565-111.304zM5420.522 904.348c-311.652 0-489.739-200.348-489.739-534.261 0-233.739 144.696-378.435 389.565-378.435 311.652 0 489.739 200.348 489.739 534.261 11.13 244.87-133.565 378.435-389.565 378.435zM5342.609 225.391c-77.913 0-111.304 55.652-111.304 144.696 0 33.391 0 66.783 11.13 100.174 22.261 111.304 55.652 222.609 178.087 222.609 77.913 0 111.304-55.652 111.304-144.696 0-33.391 0-66.783-11.13-100.174-22.261-122.435-66.783-222.609-178.087-222.609zM6811.826 13.913h278.261l111.304 634.435h222.609l33.391 233.739h-723.478l-44.522-233.739h233.739zM6333.217 559.304c-89.043 33.391-122.435 44.522-122.435 77.913s22.261 66.783 77.913 66.783c44.522 0 77.913-22.261 89.043-55.652l256 66.783c-33.391 122.435-133.565 189.217-322.783 189.217-345.043 0-367.304-233.739-367.304-300.522 0-144.696 77.913-233.739 244.87-278.261 44.522-11.13 89.043-22.261 89.043-77.913 0-33.391-33.391-66.783-77.913-66.783s-89.043 22.261-111.304 66.783l-244.87-66.783c22.261-133.565 144.696-200.348 345.043-200.348 144.696 0 389.565 33.391 389.565 300.522-11.13 144.696-89.043 233.739-244.87 278.261zM422.957 13.913l155.826 868.174h-467.478v-868.174zM7579.826 882.087l-144.696-868.174h467.478v868.174zM2682.435 882.087l-144.696-868.174h278.261l44.522 256h244.87l33.391 222.609h-233.739l22.261 155.826h333.913l44.522 233.739zM3439.304 882.087l-155.826-868.174h278.261l44.522 256h244.87l33.391 222.609h-233.739l22.261 155.826h333.913l44.522 233.739z" />
<glyph unicode="&#xe908;" glyph-name="instagram" d="M512 714.323c-144.516 0-264.258-117.677-264.258-264.258s117.677-264.258 264.258-264.258 264.258 117.677 264.258 264.258-119.742 264.258-264.258 264.258zM512 280.774c-92.903 0-169.29 76.387-169.29 169.29s76.387 169.29 169.29 169.29c92.903 0 169.29-76.387 169.29-169.29s-76.387-169.29-169.29-169.29zM786.581 780.387c-33.032 0-59.871-26.839-59.871-59.871s26.839-59.871 59.871-59.871c33.032 0 59.871 26.839 59.871 59.871-2.065 33.032-26.839 59.871-59.871 59.871zM941.419 875.355c-53.677 55.742-130.065 84.645-216.774 84.645h-425.29c-179.613 0-299.355-119.742-299.355-299.355v-423.226c0-88.774 28.903-165.161 86.71-220.903 55.742-53.677 130.065-80.516 214.71-80.516h421.161c88.774 0 163.097 28.903 216.774 80.516 55.742 53.677 84.645 130.065 84.645 218.839v425.29c0 86.71-28.903 161.032-82.581 214.71zM929.032 235.355c0-61.935-18.581-115.613-55.742-150.71-35.097-35.097-88.774-53.677-150.71-53.677h-421.161c-61.935 0-113.548 18.581-150.71 53.677-37.161 37.161-57.806 88.774-57.806 152.774v423.226c0 61.935 18.581 113.548 55.742 150.71 35.097 35.097 88.774 53.677 150.71 53.677h425.29c61.935 0 113.548-18.581 150.71-55.742 35.097-35.097 53.677-86.71 53.677-148.645v-425.29z" />
<glyph unicode="&#xe909;" glyph-name="main-character" horiz-adv-x="1820" d="M903.266 450.236c-129.677 0-236.996 107.319-236.996 236.996s107.319 236.996 236.996 236.996 236.996-107.319 236.996-236.996-102.847-236.996-236.996-236.996zM903.266 892.926c-111.79 0-205.694-93.904-205.694-205.694s93.904-205.694 205.694-205.694c111.79 0 205.694 93.904 205.694 205.694s-89.432 205.694-205.694 205.694zM1430.917-50.585c-8.943 0-17.886 8.943-17.886 17.886 0 259.354-143.092 335.371-147.563 335.371l-165.45 80.489c-178.865-165.45-397.974 4.472-397.974 8.943-8.943 4.472-8.943 17.886-4.472 22.358 4.472 8.943 17.886 8.943 22.358 4.472 8.943-4.472 205.694-156.507 362.201 0l8.943 8.943 187.808-89.432c8.943-4.472 165.45-89.432 165.45-366.672 4.472-13.415-4.472-22.358-13.415-22.358zM393.502-50.585c-8.943 0-17.886 8.943-17.886 17.886 0 277.24 156.507 362.201 165.45 366.672s17.886 0 22.358-8.943c4.472-8.943 0-17.886-8.943-22.358-4.472-4.472-147.563-80.489-147.563-335.371 0-13.415-4.472-17.886-13.415-17.886zM545.537 298.201c-4.472 0-13.415 4.472-13.415 8.943-4.472 8.943 0 17.886 8.943 22.358l165.45 89.432c8.943 4.472 17.886 0 22.358-8.943s0-17.886-8.943-22.358l-165.45-89.432c0 0-4.472 0-8.943 0zM299.598 262.428c-76.017 0-138.62 62.603-138.62 138.62s62.603 138.62 138.62 138.62 138.62-62.603 138.62-138.62-62.603-138.62-138.62-138.62zM299.598 503.895c-58.131 0-102.847-44.716-102.847-102.847s44.716-102.847 102.847-102.847 102.847 44.716 102.847 102.847c0 58.131-44.716 102.847-102.847 102.847zM1806.533-41.642c-8.943 0-17.886 8.943-17.886 17.886 0 129.677-71.546 169.921-71.546 169.921l-80.489 40.245c-76.017-67.074-174.393-26.83-214.638 8.943-8.943 4.472-8.943 17.886-4.472 22.358 4.472 8.943 17.886 8.943 22.358 4.472s102.847-80.489 178.865 0l8.943 8.943 102.847-49.188c4.472 0 89.432-49.188 89.432-201.223 0-13.415-4.472-22.358-13.415-22.358zM1529.293 262.428c-76.017 0-138.62 62.603-138.62 138.62s62.603 138.62 138.62 138.62 138.62-62.603 138.62-138.62c0-76.017-62.603-138.62-138.62-138.62zM1529.293 503.895c-58.131 0-102.847-44.716-102.847-102.847s44.716-102.847 102.847-102.847c58.131 0 102.847 44.716 102.847 102.847s-44.716 102.847-102.847 102.847zM17.886-41.642c-8.943 0-17.886 8.943-17.886 17.886 0 152.035 84.961 196.751 89.432 201.223l102.847 49.188 8.943-8.943c76.017-76.017 174.393 0 178.865 0 8.943 4.472 17.886 4.472 22.358-4.472 8.943-4.472 8.943-13.415 0-22.358-40.245-31.301-138.62-76.017-214.638-8.943l-80.489-40.245c-4.472 0-71.546-40.245-71.546-169.921 0-4.472-8.943-13.415-17.886-13.415zM152.035-41.642c-8.943 0-17.886 8.943-17.886 17.886v62.603c0 8.943 8.943 17.886 17.886 17.886s17.886-8.943 17.886-17.886v-62.603c0-8.943-8.943-17.886-17.886-17.886zM643.913-55.057c-8.943 0-17.886 8.943-17.886 17.886v134.148c0 8.943 8.943 17.886 17.886 17.886s17.886-8.943 17.886-17.886v-134.148c0-8.943-8.943-17.886-17.886-17.886zM1184.978-64c-8.943 0-17.886 8.943-17.886 17.886v134.148c0 8.943 8.943 17.886 17.886 17.886s17.886-8.943 17.886-17.886v-134.148c0-8.943-8.943-17.886-17.886-17.886zM1676.856-50.585c-8.943 0-17.886 8.943-17.886 17.886v62.603c0 8.943 8.943 17.886 17.886 17.886s17.886-8.943 17.886-17.886v-62.603c0-8.943-8.943-17.886-17.886-17.886z" />
<glyph unicode="&#xe90a;" glyph-name="next-arrow" horiz-adv-x="595" d="M87.521-64c-26.256 0-43.761 8.752-61.265 26.256-35.009 35.009-35.009 87.521 0 122.53l358.838 358.838-358.838 367.59c-35.009 35.009-35.009 87.521 0 122.53s87.521 35.009 122.53 0l420.103-420.103c17.504-17.504 26.256-35.009 26.256-61.265s-8.752-43.761-26.256-61.265l-420.103-420.103c-17.504-26.256-35.009-35.009-61.265-35.009z" />
<glyph unicode="&#xe90b;" glyph-name="previous-arrow" horiz-adv-x="595" d="M507.624-64c26.256 0 43.761 8.752 61.265 26.256 35.009 35.009 35.009 87.521 0 122.53l-358.838 367.59 358.838 358.838c35.009 35.009 35.009 87.521 0 122.53s-87.521 35.009-122.53 0l-420.103-420.103c-17.504-17.504-26.256-43.761-26.256-61.265 0-26.256 8.752-43.761 26.256-61.265l420.103-420.103c17.504-26.256 43.761-35.009 61.265-35.009z" />
<glyph unicode="&#xe90c;" glyph-name="relationship" d="M289.28 145.92h-94.72c-43.52 0-79.36 35.84-79.36 79.36v158.72h-76.8v12.8l79.36 204.8c0 174.080 140.8 314.88 314.88 314.88v33.28c-189.44 0-345.6-153.6-345.6-343.040l-79.36-204.8v-51.2h79.36v-125.44c0-61.44 48.64-110.080 110.080-110.080h79.36v-174.080h30.72v174.080h30.72v30.72h-48.64zM936.96 606.72c-2.56 186.88-156.16 343.040-348.16 343.040s-345.6-156.16-345.6-348.16h30.72c0 174.080 140.8 314.88 314.88 314.88s314.88-140.8 314.88-314.88v-2.56l79.36-204.8v-12.8h-79.36v-158.72c0-43.52-35.84-79.36-79.36-79.36h-140.8v-28.16h30.72v-174.080h30.72v174.080h79.36c61.44 0 110.080 48.64 110.080 110.080v125.44h79.36v51.2l-76.8 204.8zM778.24 570.88v30.72h-30.72v-30.72c0-92.16-33.28-161.28-64-230.4-30.72-66.56-61.44-130.56-61.44-209.92v-189.44h30.72v189.44c0 71.68 28.16 133.12 58.88 197.12 30.72 71.68 66.56 145.92 66.56 243.2z" />
<glyph unicode="&#xe90d;" glyph-name="search" horiz-adv-x="1007" d="M161.461 513.859h42.49c0 127.469 110.473 237.942 237.942 237.942v42.49c-165.71 4.249-280.432-110.473-280.432-280.432zM977.261 25.228l-212.448 212.448c63.734 72.232 101.975 169.959 101.975 276.183 0 233.693-191.203 424.896-424.896 424.896s-424.896-191.203-424.896-424.896c0-233.693 191.203-424.896 424.896-424.896 97.726 0 186.954 33.992 259.187 89.228l216.697-216.697c8.498-8.498 21.245-12.747 29.743-12.747s21.245 4.249 29.743 12.747c16.996 21.245 16.996 46.739 0 63.734zM106.224 513.859c0 186.954 152.963 339.917 339.917 339.917s339.917-152.963 339.917-339.917c0-186.954-152.963-339.917-339.917-339.917-191.203 4.249-339.917 157.212-339.917 339.917z" />
<glyph unicode="&#xe90e;" glyph-name="theguardian" horiz-adv-x="5266" d="M4432.457 294.4v124.343h-36.571c-36.571 0-65.829-29.257-65.829-73.143 0-51.2 29.257-73.143 58.514-73.143 14.629 0 36.571 7.314 43.886 21.943zM4322.743 616.229l-29.257-95.086h-80.457v124.343c43.886 14.629 102.4 36.571 182.857 36.571 124.343 0 190.171-51.2 190.171-153.6v-248.686l51.2-21.943v-43.886c-14.629-7.314-58.514-21.943-95.086-21.943-51.2 0-87.771 14.629-95.086 65.829h-7.314c-21.943-43.886-73.143-65.829-131.657-65.829-80.457 0-131.657 51.2-131.657 131.657 0 95.086 65.829 117.029 160.914 138.971l87.771 14.629v51.2c0 58.514-14.629 87.771-80.457 87.771 0 0-14.629 0-21.943 0zM2764.8 294.4v124.343h-36.571c-36.571 0-65.829-29.257-65.829-73.143 0-51.2 29.257-73.143 58.514-73.143 14.629 0 29.257 7.314 43.886 21.943zM2655.086 616.229l-36.571-95.086h-80.457v124.343c43.886 14.629 102.4 36.571 182.857 36.571 124.343 0 190.171-51.2 190.171-153.6v-248.686l51.2-21.943v-43.886c-14.629-7.314-58.514-21.943-95.086-21.943-51.2 0-87.771 14.629-95.086 65.829h-7.314c-21.943-43.886-73.143-65.829-131.657-65.829-80.457 0-131.657 51.2-131.657 131.657 0 95.086 65.829 117.029 160.914 138.971l87.771 14.629v51.2c0 58.514-14.629 87.771-80.457 87.771 7.314 0-7.314 0-14.629 0zM160.914 330.971v256h-73.143v73.143l73.143 7.314v87.771l153.6 21.943v-109.714h102.4v-80.457h-102.4v-241.371c0-43.886 14.629-65.829 58.514-65.829 14.629 0 36.571 0 51.2 7.314v-58.514c-21.943-14.629-80.457-29.257-124.343-29.257-95.086-7.314-138.971 36.571-138.971 131.657zM1221.486 623.543c36.571 0 58.514-14.629 58.514-138.971l-131.657-7.314c7.314 109.714 29.257 146.286 73.143 146.286zM1155.657 418.743h277.943c0 197.486-65.829 256-204.8 256s-226.743-87.771-226.743-241.371c0-160.914 80.457-241.371 241.371-241.371 87.771 0 153.6 36.571 175.543 65.829v43.886c-29.257-7.314-65.829-14.629-124.343-14.629-87.771 0-131.657 43.886-138.971 131.657zM1682.286 53.029c-87.771 0-124.343 21.943-124.343 51.2 0 21.943 7.314 43.886 21.943 58.514h182.857c36.571 0 65.829-7.314 65.829-36.571 7.314-51.2-36.571-73.143-146.286-73.143zM1689.6 623.543c36.571 0 58.514-21.943 58.514-102.4s-21.943-95.086-58.514-95.086c-36.571 0-51.2 21.943-51.2 95.086-7.314 73.143 14.629 102.4 51.2 102.4zM1784.686 301.714h-153.6c-21.943 0-36.571 14.629-36.571 29.257s0 29.257 14.629 43.886c21.943-7.314 51.2-14.629 87.771-14.629 117.029 0 204.8 51.2 204.8 153.6 0 43.886-14.629 73.143-43.886 95.086v7.314l65.829-21.943v80.457h-7.314l-117.029-21.943h-7.314c-29.257 7.314-73.143 21.943-109.714 21.943-117.029 0-204.8-58.514-204.8-160.914 0-58.514 21.943-109.714 73.143-131.657v-7.314c-43.886-29.257-80.457-73.143-80.457-109.714s21.943-80.457 73.143-87.771v-7.314c-43.886-14.629-102.4-29.257-102.4-80.457 0-58.514 80.457-102.4 226.743-102.4 182.857 0 263.314 73.143 263.314 182.857 14.629 95.086-43.886 131.657-146.286 131.657zM3898.514 645.486v-43.886l58.514-29.257v-299.886l-58.514-21.943v-51.2h263.314v51.2l-51.2 21.943v402.286h-14.629zM2991.543 645.486v-51.2l58.514-21.943v-299.886l-58.514-21.943v-51.2h285.257v51.2l-73.143 21.943v248.686c29.257 14.629 58.514 14.629 102.4 14.629 14.629 0 29.257 0 36.571-7.314v146.286c-7.314 0-14.629 0-21.943 0-51.2 0-95.086-29.257-117.029-95.086h-7.314v95.086h-14.629l-190.171-29.257zM4030.171 872.229c43.886 0 80.457-36.571 80.457-80.457s-36.571-80.457-80.457-80.457c-43.886-7.314-80.457 29.257-80.457 73.143s36.571 87.771 80.457 87.771zM3664.457 762.514l-65.829 21.943v51.2l204.8 29.257h14.629v-585.143l58.514-21.943v-43.886l-190.171-21.943h-14.629v51.2h-7.314c-21.943-21.943-58.514-51.2-117.029-51.2-87.771 0-182.857 51.2-182.857 234.057 0 190.171 102.4 256 226.743 256 21.943 0 58.514-7.314 73.143-21.943v102.4zM3664.457 287.086v307.2c-14.629 7.314-21.943 14.629-51.2 14.629-51.2 0-87.771-43.886-87.771-175.543 0-117.029 29.257-160.914 87.771-160.914 29.257 0 43.886 7.314 51.2 14.629zM2004.114 572.343l-58.514 21.943v51.2l197.486 29.257h14.629v-329.143c0-51.2 29.257-65.829 65.829-65.829 29.257 0 36.571 7.314 58.514 7.314v285.257l-58.514 21.943v51.2l197.486 29.257h14.629v-394.971l58.514-29.257v-36.571l-190.171-21.943h-14.629v58.514h-7.314c-29.257-36.571-80.457-65.829-138.971-65.829-95.086 0-131.657 65.829-131.657 146.286v241.371zM453.486 250.514l51.2 21.943v497.371l-51.2 21.943v43.886l197.486 29.257h7.314v-256h7.314c43.886 36.571 95.086 58.514 160.914 58.514 80.457 0 117.029-36.571 117.029-124.343v-277.943l58.514-21.943v-51.2h-256v58.514l51.2 21.943v241.371c0 43.886-21.943 65.829-65.829 65.829-21.943 0-43.886-7.314-65.829-14.629v-292.571l51.2-21.943v-51.2h-263.314v51.2zM4666.514 250.514l51.2 21.943v299.886l-58.514 21.943v51.2l197.486 29.257h14.629v-58.514h7.314c43.886 36.571 95.086 58.514 160.914 58.514 80.457 0 117.029-36.571 117.029-124.343v-277.943l58.514-21.943v-51.2h-256v51.2l51.2 21.943v241.371c0 43.886-21.943 65.829-65.829 65.829-21.943 0-43.886-7.314-65.829-14.629v-292.571l51.2-21.943v-51.2h-256v51.2z" />
<glyph unicode="&#xe90f;" glyph-name="the-washington-post" horiz-adv-x="6583" d="M210.286 566.857c9.143 36.571 27.429 64 54.857 82.286 0 0 9.143 0 9.143 0s9.143 0 27.429 0c9.143 0 9.143 0 18.286 0s9.143 0 18.286-9.143c9.143 0 9.143-9.143 18.286-9.143l-91.429-73.143 9.143-18.286v-246.857c-18.286 9.143-36.571 27.429-54.857 54.857s-27.429 73.143-27.429 128c0 27.429 9.143 54.857 18.286 91.429zM201.143 667.429c9.143 0 9.143 0 18.286 0s18.286 0 27.429-9.143c-45.714-27.429-91.429-64-118.857-118.857-27.429-45.714-36.571-91.429-36.571-146.286 0-73.143 27.429-128 73.143-173.714s100.571-73.143 173.714-73.143c64 0 118.857 27.429 164.571 73.143s64 109.714 64 173.714c-9.143-9.143-9.143-27.429-18.286-36.571s-18.286-18.286-36.571-27.429c-9.143-9.143-18.286-18.286-27.429-18.286 0-9.143-9.143-9.143-27.429-18.286v338.286c18.286 9.143 27.429 9.143 36.571 18.286s18.286 18.286 27.429 27.429c27.429 27.429 45.714 64 45.714 100.571-18.286-9.143-36.571-27.429-45.714-27.429-18.286-9.143-36.571-9.143-54.857-18.286 0 0-9.143 0-9.143 0-18.286 0-54.857 9.143-100.571 27.429s-82.286 27.429-100.571 27.429c-45.714 0-91.429-18.286-118.857-64-27.429-36.571-36.571-91.429-36.571-146.286 0 18.286 9.143 36.571 27.429 45.714 9.143 9.143 18.286 18.286 36.571 27.429 9.143 9.143 18.286 18.286 36.571 18.286zM649.143 146.286l-82.286 91.429 27.429 27.429v457.143l82.286 73.143 18.286-36.571v-173.714l18.286-9.143 64 45.714 91.429-54.857h27.429v-356.571c-9.143-18.286-9.143-36.571-18.286-54.857s-27.429-36.571-36.571-45.714-45.714-45.714-64-54.857c-18.286-9.143-45.714-18.286-73.143-18.286 9.143 0 27.429 18.286 36.571 27.429s18.286 18.286 27.429 27.429c9.143 9.143 18.286 27.429 18.286 36.571s0 27.429 0 45.714v320l-64 45.714-27.429-18.286v-237.714l36.571-45.714-82.286-91.429zM932.571 246.857l146.286-91.429 137.143 146.286-73.143-54.857-91.429 64v64l164.571 128-109.714 146.286-173.714-118.857v-283.429zM1426.286 713.143v-173.714c-9.143 0-18.286 0-27.429-9.143-9.143 0-18.286-9.143-27.429-18.286-27.429-18.286-36.571-45.714-36.571-73.143 0-9.143 0-9.143 0-18.286 0 0 0-9.143 0-9.143 9.143 9.143 18.286 9.143 27.429 18.286 9.143 0 18.286 0 27.429 0s9.143 0 18.286 0c0 0 9.143 0 18.286-9.143v-173.714l128-118.857 118.857 118.857 137.143-118.857 201.143 201.143v338.286l-128 100.571-91.429-82.286-128 82.286-109.714-100.571v64c0 18.286-9.143 36.571-36.571 64-9.143 9.143-18.286 9.143-18.286 18.286-9.143 9.143-9.143 18.286-9.143 27.429s0 18.286 0 27.429 9.143 36.571 18.286 45.714c-9.143 0-9.143 0-18.286 0-27.429 0-54.857-9.143-73.143-36.571-36.571-27.429-45.714-54.857-45.714-82.286 0 0 0-9.143 0-18.286 9.143-27.429 27.429-45.714 54.857-64zM2038.857 246.857l118.857-82.286 82.286 82.286 100.571-73.143 82.286 91.429h-27.429l-36.571 36.571v274.286h-18.286l-100.571 82.286-182.857-128v-265.143l-18.286-18.286zM2587.429 630.857c-9.143 9.143-18.286 9.143-36.571 18.286l-146.286-109.714v-182.857l18.286-9.143h91.429l-118.857-201.143c18.286 18.286 27.429 27.429 45.714 27.429 9.143 9.143 27.429 9.143 45.714 9.143s36.571 0 45.714-9.143c9.143-9.143 27.429-9.143 36.571-27.429l146.286 118.857v182.857l-9.143 9.143h-100.571v27.429l91.429 155.429c-9.143-9.143-18.286-9.143-18.286-9.143-9.143 0-18.286 0-27.429 0h-18.286c-18.286-9.143-27.429 0-45.714 0zM2825.143 164.571l-91.429 73.143 27.429 27.429v457.143l82.286 82.286 18.286-36.571v-173.714l27.429-9.143 64 54.857 91.429-54.857h27.429v-356.571c-9.143-18.286-9.143-36.571-18.286-54.857s-18.286-36.571-36.571-54.857c-18.286-27.429-45.714-45.714-64-54.857s-45.714-18.286-73.143-18.286c9.143 0 27.429 18.286 36.571 27.429s9.143 18.286 18.286 27.429c9.143 9.143 18.286 27.429 18.286 36.571s0 27.429 0 45.714v320l-64 45.714-18.286-18.286v-228.571l36.571-45.714-82.286-91.429zM3273.143 704l-73.143-64-73.143 64 64 73.143 82.286-73.143zM3136 502.857l-27.429 27.429-36.571 18.286 82.286 82.286 100.571-73.143-9.143-18.286v-256l36.571-27.429 54.857 18.286v228.571l-27.429 27.429h-27.429l82.286 91.429 100.571-73.143 82.286 82.286 82.286-64 18.286 9.143-9.143-27.429v-256l18.286-36.571h27.429l-82.286-91.429-82.286 73.143v228.571l-45.714 54.857-18.286-9.143v-237.714l27.429-36.571-82.286-91.429-100.571 82.286-82.286-64-73.143 64h-27.429l18.286 27.429v246.857zM4800 256l-82.286-82.286-100.571 64 36.571 45.714v228.571l-27.429 27.429h-27.429l82.286 91.429 100.571-73.143 82.286 82.286 82.286-64h18.286l-9.143-18.286v-246.857l18.286-36.571h36.571l-82.286-91.429-82.286 73.143v228.571l-54.857 45.714-18.286-9.143v-228.571l27.429-36.571zM3712 256c9.143 0 27.429 0 36.571-9.143 9.143 0 18.286-9.143 27.429-18.286s18.286-18.286 18.286-18.286 9.143-18.286 9.143-27.429l-45.714-64-54.857-64c9.143 9.143 27.429 9.143 36.571 9.143s18.286 0 36.571 0c18.286 0 36.571-9.143 54.857-18.286s27.429-18.286 36.571-36.571c27.429 9.143 64 36.571 100.571 73.143s54.857 73.143 54.857 91.429c0 0 0 18.286-9.143 36.571s-9.143 45.714-9.143 73.143v301.714l-128 82.286-164.571-118.857v-292.571zM4032 566.857l54.857 64v73.143l109.714 100.571v-173.714h54.857l-54.857-64v-265.143l27.429-27.429h36.571l-91.429-100.571-64 54.857h-27.429l9.143 18.286v320h-54.857zM4269.714 256l118.857-82.286 201.143 137.143v274.286l-18.286-9.143-100.571 82.286-182.857-128v-265.143l-18.286-9.143zM5202.286 713.143v-82.286c-18.286 0-27.429 0-36.571-9.143-9.143 0-18.286-9.143-27.429-18.286-18.286-9.143-18.286-27.429-27.429-36.571 0-9.143 0-27.429 0-54.857 0-9.143 0-18.286 0-18.286 9.143 18.286 36.571 27.429 54.857 27.429s27.429-9.143 36.571-18.286v-146.286c-27.429-18.286-54.857-36.571-73.143-54.857-27.429-27.429-36.571-54.857-45.714-82.286 9.143 9.143 27.429 18.286 36.571 18.286 9.143 9.143 18.286 9.143 36.571 18.286 9.143 0 9.143 0 18.286 9.143 9.143 0 18.286 0 27.429 0v-274.286l118.857 100.571 36.571-27.429v146.286l54.857-18.286 182.857 128v402.286l-109.714 91.429-118.857-100.571v54.857l-18.286 18.286v-82.286l-18.286-9.143v82.286l-91.429 73.143-118.857-109.714c9.143 9.143 18.286 9.143 27.429 9.143s18.286 0 27.429 0c9.143-9.143 27.429-27.429 27.429-36.571zM5604.571 246.857l118.857-82.286 201.143 137.143v274.286h-18.286l-100.571 82.286-182.857-128v-265.143l-18.286-18.286zM6134.857 640c-9.143 0-18.286 9.143-36.571 18.286l-146.286-109.714v-182.857l9.143-9.143h91.429l-109.714-201.143c9.143 9.143 27.429 18.286 36.571 27.429 18.286 9.143 36.571 18.286 54.857 18.286s36.571 0 45.714-9.143c9.143-9.143 27.429-9.143 36.571-27.429l146.286 118.857v182.857l-9.143 9.143h-100.571v9.143l91.429 155.429c-9.143-9.143-18.286-9.143-18.286-9.143-9.143 0-18.286 0-27.429 0h-18.286c-18.286 0-27.429 0-45.714 9.143zM6262.857 566.857l54.857 64v73.143l109.714 100.571v-182.857h54.857l-54.857-64v-265.143l27.429-27.429h36.571l-91.429-100.571-64 54.857h-27.429l9.143 27.429v320h-54.857zM2166.857 557.714l73.143-54.857v-219.429l-27.429-27.429-45.714 45.714v256zM3958.857 173.714c18.286-9.143 18.286-27.429 18.286-36.571s0-9.143 0-18.286-9.143-9.143-9.143-9.143c-9.143-9.143-9.143-9.143-18.286-9.143s-18.286 0-27.429 9.143c-9.143 9.143-36.571 9.143-54.857 9.143s-27.429 0-45.714-9.143c-9.143 0-27.429-9.143-45.714-18.286l137.143 164.571v-18.286c0-9.143 0-18.286 0-27.429s9.143-18.286 18.286-27.429c0 9.143 9.143 0 27.429-9.143zM3840 566.857l73.143-54.857v-210.286l-18.286-18.286-54.857 54.857v228.571zM1051.429 402.286v137.143l64-82.286-64-54.857zM2633.143 557.714l-64-109.714h-45.714v118.857c18.286-9.143 36.571-18.286 64-18.286 9.143 0 27.429 0 45.714 9.143zM4388.571 566.857l73.143-54.857v-219.429l-27.429-27.429-45.714 45.714v256zM2541.714 374.857h64v-118.857c-9.143 0-18.286 9.143-27.429 9.143s-18.286 0-36.571 0c-9.143 0-27.429 0-36.571 0s-18.286-9.143-36.571-9.143l73.143 118.857zM5330.286 630.857l18.286 18.286v-530.286l-18.286 9.143v502.857zM5366.857 658.286l54.857 36.571 36.571-27.429v-347.429c-18.286 9.143-27.429 18.286-27.429 18.286s-9.143 0-18.286 9.143c-18.286 0-27.429 9.143-45.714 9.143v301.714zM429.714 621.714c9.143 0 9.143 0 18.286 0v-338.286c-27.429-9.143-54.857-18.286-82.286-18.286-18.286 0-27.429 0-45.714 9.143-18.286 0-27.429 9.143-36.571 18.286l109.714 109.714v219.429c0 0 9.143 0 18.286 0s9.143 0 9.143 0h9.143zM5732.571 557.714l73.143-54.857v-219.429l-18.286-27.429-45.714 45.714v256zM1554.286 640l36.571 27.429 73.143-73.143v-329.143l-27.429-27.429-82.286 73.143v329.143zM6153.143 557.714c9.143 0 18.286 0 27.429 9.143l-64-109.714h-45.714v118.857c18.286-9.143 36.571-18.286 64-18.286 0 0 9.143 0 18.286 0zM6089.143 384h64v-118.857c-9.143 0-18.286 9.143-27.429 9.143s-18.286 0-36.571 0c-9.143 0-27.429 0-36.571 0s-18.286-9.143-36.571-9.143l73.143 118.857zM1792 640l36.571 27.429 73.143-73.143v-329.143l-27.429-27.429-73.143 73.143v329.143z" />
<glyph unicode="&#xe910;" glyph-name="twitter" horiz-adv-x="1262" d="M1262.080 839.68c-46.080-20.48-97.28-33.28-148.48-40.96 53.76 33.28 94.72 81.92 112.64 143.36-51.2-30.72-104.96-51.2-163.84-64-48.64 51.2-115.2 81.92-189.44 81.92-143.36 0-258.56-115.2-258.56-258.56 0-20.48 2.56-40.96 7.68-58.88-215.040 10.24-407.040 112.64-535.040 271.36-20.48-38.4-33.28-84.48-33.28-130.56 0-89.6 46.080-168.96 115.2-215.040-43.52 2.56-81.92 12.8-117.76 33.28 0 0 0-2.56 0-2.56 0-125.44 89.6-230.4 207.36-253.44-20.48-5.12-43.52-10.24-69.12-10.24-17.92 0-33.28 2.56-48.64 5.12 33.28-102.4 128-176.64 240.64-179.2-89.6-69.12-199.68-110.080-322.56-110.080-20.48 0-40.96 0-61.44 2.56 117.76-76.8 253.44-117.76 399.36-117.76 476.16 0 737.28 394.24 737.28 737.28 0 10.24 0 23.040 0 33.28 48.64 35.84 92.16 79.36 128 133.12z" />
<glyph unicode="&#xe911;" glyph-name="close" d="M572.16 448l88.32 88.32c16.64 16.64 16.64 43.52 0 60.16s-43.52 16.64-60.16 0l-88.32-88.32-88.32 88.32c-16.64 16.64-43.52 16.64-60.16 0s-16.64-43.52 0-60.16l88.32-88.32-88.32-88.32c-16.64-16.64-16.64-43.52 0-60.16 7.68-7.68 19.2-12.8 29.44-12.8s21.76 3.84 29.44 12.8l88.32 88.32 88.32-88.32c7.68-7.68 19.2-12.8 29.44-12.8s21.76 3.84 29.44 12.8c16.64 16.64 16.64 43.52 0 60.16l-85.76 88.32zM865.28 801.28c-94.72 94.72-220.16 145.92-353.28 145.92s-258.56-51.2-353.28-145.92c-93.44-94.72-145.92-220.16-145.92-353.28s51.2-258.56 145.92-353.28c94.72-94.72 220.16-145.92 353.28-145.92s258.56 52.48 353.28 145.92c194.56 194.56 194.56 512 0 706.56zM805.12 154.88c-78.080-78.080-181.76-121.6-293.12-121.6-110.080 0-215.040 43.52-293.12 121.6s-121.6 181.76-121.6 293.12c0 111.36 43.52 215.040 121.6 293.12s183.040 121.6 293.12 121.6c110.080 0 215.040-43.52 293.12-121.6 161.28-161.28 161.28-424.96 0-586.24z" />
<glyph unicode="&#xe912;" glyph-name="plus-filled" d="M512-51.2c-275.2 0-499.2 224-499.2 499.2s224 499.2 499.2 499.2 499.2-224 499.2-499.2-224-499.2-499.2-499.2zM803.84 488.96c0 23.040-19.2 42.24-42.24 42.24h-166.4v166.4c0 23.040-19.2 42.24-42.24 42.24h-83.2c-23.040 0-42.24-19.2-42.24-42.24v-166.4h-166.4c-23.040 0-42.24-19.2-42.24-42.24v-83.2c0-23.040 19.2-42.24 42.24-42.24h166.4v-166.4c0-23.040 19.2-42.24 42.24-42.24h83.2c23.040 0 42.24 19.2 42.24 42.24v166.4h166.4c23.040 0 42.24 19.2 42.24 42.24v83.2z" />
<glyph unicode="&#xe913;" glyph-name="delete" d="M970.24 718.080c0-11.52-8.96-20.48-20.48-20.48h-62.72v-615.68c0-71.68-47.36-133.12-103.68-133.12h-541.44c-57.6 0-103.68 58.88-103.68 130.56v618.24h-62.72c-11.52 0-20.48 8.96-20.48 20.48v42.24c0 11.52 8.96 20.48 20.48 20.48h200.96l46.080 108.8c11.52 32 51.2 57.6 85.76 57.6h208.64c34.56 0 72.96-25.6 87.040-57.6l46.080-108.8h200.96c11.52 0 20.48-8.96 20.48-20.48v-42.24zM803.84 697.6h-582.4v-615.68c0-30.72 17.92-49.92 20.48-49.92h541.44c3.84 0 20.48 17.92 20.48 49.92v615.68zM387.84 177.92c0-11.52-8.96-20.48-20.48-20.48h-42.24c-11.52 0-20.48 8.96-20.48 20.48v373.76c0 11.52 8.96 20.48 20.48 20.48h42.24c11.52 0 20.48-8.96 20.48-20.48v-373.76zM657.92 780.8l-30.72 75.52c-2.56 2.56-7.68 6.4-11.52 7.68h-206.080c-3.84-1.28-8.96-5.12-11.52-7.68l-32-75.52h291.84zM554.24 177.92c0-11.52-8.96-20.48-20.48-20.48h-42.24c-11.52 0-20.48 8.96-20.48 20.48v373.76c0 11.52 8.96 20.48 20.48 20.48h42.24c11.52 0 20.48-8.96 20.48-20.48v-373.76zM720.64 177.92c0-11.52-8.96-20.48-20.48-20.48h-42.24c-11.52 0-20.48 8.96-20.48 20.48v373.76c0 11.52 8.96 20.48 20.48 20.48h42.24c11.52 0 20.48-8.96 20.48-20.48v-373.76z" />
<glyph unicode="&#xe914;" glyph-name="star-lined" d="M995.84 526.080l-217.6-212.48 51.2-299.52c0-3.84 0-7.68 0-11.52 0-16.64-7.68-29.44-24.32-29.44-8.96 0-16.64 2.56-24.32 7.68l-268.8 139.52-268.8-140.8c-7.68-3.84-15.36-7.68-24.32-7.68-17.92 0-25.6 14.080-25.6 29.44 0 3.84 0 7.68 1.28 11.52l51.2 299.52-217.6 213.76c-7.68 7.68-15.36 17.92-15.36 29.44 0 17.92 19.2 25.6 33.28 28.16l300.8 43.52 135.68 272.64c5.12 11.52 15.36 24.32 29.44 24.32s24.32-12.8 29.44-24.32l134.4-272.64 300.8-43.52c14.080-2.56 33.28-8.96 33.28-28.16 1.28-11.52-6.4-21.76-14.080-29.44zM878.080 519.68l-253.44 37.12-112.64 229.12-113.92-229.12-253.44-37.12 183.040-177.92-43.52-252.16 227.84 117.76 226.56-119.040-43.52 252.16 183.040 179.2z" />
<glyph unicode="&#xe915;" glyph-name="star-filled" d="M995.84 526.080l-217.6-212.48 51.2-299.52c0-3.84 0-7.68 0-11.52 0-15.36-7.68-29.44-24.32-29.44-8.96 0-16.64 2.56-24.32 7.68l-268.8 139.52-268.8-140.8c-7.68-3.84-15.36-7.68-24.32-7.68-17.92 0-25.6 14.080-25.6 29.44 0 3.84 0 7.68 1.28 11.52l51.2 299.52-217.6 213.76c-7.68 7.68-15.36 17.92-15.36 29.44 0 17.92 19.2 25.6 33.28 28.16l300.8 43.52 135.68 272.64c5.12 11.52 15.36 24.32 29.44 24.32s24.32-12.8 29.44-24.32l134.4-272.64 300.8-43.52c14.080-2.56 33.28-10.24 33.28-28.16 1.28-11.52-6.4-21.76-14.080-29.44z" />
<glyph unicode="&#xe916;" glyph-name="sorted-arrow" d="M829.44 538.88h-634.88c-24.32 0-44.8 20.48-44.8 44.8 0 11.52 5.12 23.040 14.080 32l316.16 317.44c8.96 8.96 20.48 14.080 32 14.080s23.040-5.12 32-14.080l317.44-317.44c8.96-8.96 14.080-20.48 14.080-32 0-24.32-20.48-44.8-46.080-44.8zM861.44 280.32l-317.44-317.44c-8.96-8.96-20.48-14.080-32-14.080s-23.040 5.12-32 14.080l-317.44 317.44c-8.96 8.96-14.080 20.48-14.080 32 0 24.32 20.48 44.8 44.8 44.8h634.88c24.32 0 44.8-20.48 44.8-44.8 2.56-12.8-2.56-24.32-11.52-32z" />
<glyph unicode="&#xe917;" glyph-name="edit" d="M835.84 496.64l-549.12-547.84h-273.92v273.92l547.84 547.84 275.2-273.92zM312.32 93.44l-154.88 154.88-60.16-60.16v-70.4h84.48v-84.48h70.4l60.16 60.16zM582.4 659.2c-3.84 0-7.68-1.28-11.52-5.12l-357.12-357.12c-3.84-3.84-5.12-7.68-5.12-11.52 0-8.96 6.4-14.080 14.080-14.080 3.84 0 7.68 1.28 11.52 5.12l357.12 357.12c3.84 3.84 5.12 7.68 5.12 11.52 0 7.68-5.12 14.080-14.080 14.080zM986.88 648.96l-108.8-108.8-275.2 272.64 110.080 108.8c15.36 15.36 37.12 25.6 58.88 25.6s43.52-8.96 60.16-25.6l154.88-153.6c15.36-15.36 24.32-37.12 24.32-60.16 0-21.76-8.96-43.52-24.32-58.88z" />
</font>
</defs>
</svg>
